<svg width="120" height="113" xmlns="http://www.w3.org/2000/svg" xmlns:xlink="http://www.w3.org/1999/xlink" xml:space="preserve" overflow="hidden"><g transform="translate(-59 -162)"><path d="M75.8935 75.1528 75.8935 75.6243C75.7597 75.816 75.4129 75.7901 75.4373 76.1095L75.1954 76.1095 74.981 76.689 74.4502 76.8624 74.0913 77.492 73.7551 77.6608 73.7551 77.8707C73.5696 77.9513 73.3354 77.9848 73.2198 78.1202 73.1042 78.2555 72.9582 78.3574 72.835 78.4821 72.7437 78.5734 72.6829 78.6966 72.5916 78.7863 72.4909 78.8712 72.3842 78.9484 72.2722 79.0175 72.2479 79.3445 72.2479 79.3445 72.076 79.5392 72.042 79.5389 72.0082 79.5338 71.9757 79.5239 71.9396 79.4964 71.9071 79.4648 71.8783 79.4297 71.7262 79.6243 71.454 79.7338 71.4966 80.038L70.8882 80.1901C70.8882 80.476 70.7787 80.6616 70.4487 80.6205 70.4411 80.7589 70.435 80.8791 70.4258 81.0327L69.9285 81.2943 69.7643 81.6395C69.4601 81.7095 69.3749 82.0958 69.0859 82.2297 68.797 82.3635 68.7148 82.7087 68.4335 82.8487L67.8844 82.7255 67.8844 83.1331C67.4966 83.384 67.2593 83.7734 66.8882 84.0973L66.8882 84.5186 66.5947 84.3665 66.403 84.6129 66.2312 84.5156 65.7171 85.019 65.6791 84.9719 65.1422 85.1589C65.0692 85.346 64.9901 85.53 64.9278 85.7019 64.8274 85.7617 64.7346 85.8332 64.6509 85.9148 64.3954 86.2297 64.3589 86.2449 63.9741 86.0669L63.7004 86.3194 63.3779 86.0836C63.3658 86.1399 63.3567 86.1886 63.3384 86.2798L62.9141 86.0015C62.9384 85.8722 62.9703 85.711 63.0129 85.4951L62.8137 85.019 62.3574 85.019C62.3985 85.13 62.4304 85.2122 62.4745 85.3232 62.0395 85.346 61.7384 85.0388 61.3916 84.8791L61.2274 85.0312C61.2106 84.8791 61.197 84.7498 61.1817 84.6008L61.0038 84.6008 60.5582 84.1551 60.6905 83.8844 60.4563 83.8023C60.3787 83.8935 60.2099 83.8266 59.9574 83.8023L60.3498 83.5103C60.3498 83.4449 60.3346 83.1103 60.3346 83.1103 60.3039 83.097 60.2724 83.0859 60.2403 83.0768 60.2161 83.0741 60.1916 83.0741 60.1673 83.0768 60.1506 83.1696 60.1338 83.2684 60.1141 83.381L59.7506 83.381C59.6076 83.1741 59.7901 82.9992 59.8388 82.7574 59.6867 82.7909 59.6319 82.8989 59.5422 82.9719L59.3506 82.7209 59.6198 82.5855C59.5696 82.5312 59.5116 82.4847 59.4479 82.4472 59.0935 82.2951 59.092 82.2951 59.0068 82.0015L58.5932 82.1278 58.3255 81.6928 58.3255 81.3232 57.9848 80.9825 57.9848 80.6205 57.7141 80.6038C57.6046 80.4319 57.5848 80.1916 57.343 80.1217L57.343 79.8707 56.3498 79.1376 55.2593 78.9597 55.0951 78.7833C55.0449 78.9217 54.9947 79.0601 54.943 79.2198L54.7194 79.1513 54.3589 79.3643C54.4167 79.6198 54.0548 79.4616 54.0411 79.6608 54.0411 79.781 54.0304 79.9011 54.0243 80.0213L53.8722 80.1734 53.5361 80.1734C53.4525 80.5445 53.1163 80.5582 52.8411 80.6403L52.8411 80.9125C52.3361 80.8867 52.0487 81.2487 51.7232 81.5665L51.4996 81.5665C51.3962 81.7354 51.2091 81.8281 51.1118 82.035 51.0327 82.2038 50.8167 82.3072 50.6738 82.4289L50.1749 82.4289 49.9087 82.7589 49.6456 82.7589 49.6456 83.1452C49.1574 83.1924 48.8684 83.4601 48.7331 83.9361 48.5095 83.9057 48.2692 83.9985 48.038 83.8357 47.8719 84.2147 47.5364 84.4928 47.1331 84.5856 46.9977 84.6221 46.8973 84.7878 46.7741 84.8989L46.3711 84.8989 45.9148 85.5331C45.5072 85.5422 45.4449 85.6061 45.054 85.7399 44.7498 85.8418 44.7498 86.1962 44.5308 86.2677 44.3118 86.3392 44.0745 86.4015 43.9148 86.5886 43.8631 86.6631 43.8196 86.7433 43.7856 86.8274L43.3125 86.8274 43.3125 87.1224 42.9323 87.1224 42.657 87.489 42.6449 87.7643 41.9863 87.9255 41.7034 87.5787 41.2395 87.5787C40.8624 87.311 40.5049 87.0585 40.0228 87.0296 40.0228 87.0296 40.003 87.0296 40 87.0114 39.9833 86.9642 39.9726 86.9156 39.9544 86.8471L39.6046 86.8471 39.4768 86.5764 39.1331 86.8335 38.9125 86.7255C38.9125 86.8259 38.8989 86.9095 38.8928 87.0053L38.692 87.0768 38.692 87.4631C38.1323 87.9757 37.6274 88.4471 37.0859 88.9399L37.0859 89.2167 36.5688 89.6973 36.1247 89.7901C36.1693 90.1354 36.0187 90.4768 35.7338 90.6768 35.3125 90.7042 35.3125 90.7042 35.2593 90.9734L34.7833 91.5316 34.5247 91.5589 34.5247 91.9027 33.5209 92.908 33.4966 92.8624 32.584 93.3673 32.7057 93.5802 32.324 94.108C32.0441 94.0076 31.9848 94.4 31.7323 94.33L31.7323 94.7087 31.3141 94.9049 31.3141 95.1148 30.8882 95.4053 30.3878 95.4053 29.8996 96.0365 29.8996 96.2144 29.4205 96.6935 28.7544 96.6935C28.7209 96.8608 28.7346 97.0373 28.5673 97.1148 28.219 97.2776 28.1932 97.6243 28.0836 97.9255 28.0725 97.9738 28.0587 98.0216 28.0426 98.0684 28.0274 98.0989 27.9939 98.1201 27.93 98.184 27.5804 98.1509 27.2363 98.2893 27.0068 98.5551 26.8943 98.6753 26.6814 98.7072 26.4852 98.7863 26.4852 98.8715 26.473 98.9916 26.4669 99.1118L26.3148 99.2639 25.9559 99.2639 25.9316 99.7871 25.5696 100.228 25.2122 100.228C25.2103 100.284 25.2001 100.339 25.1817 100.391 25.1545 100.437 25.1165 100.477 25.0707 100.505 25.0256 100.526 24.9781 100.541 24.9293 100.551 24.8806 100.563 24.8122 100.551 24.7848 100.586 24.7224 100.657 24.6829 100.656 24.6251 100.586 24.6251 100.578 24.5551 100.622 24.5156 100.634 24.4655 100.646 24.4148 100.654 24.3635 100.659 24.3103 100.659 24.257 100.659 24.2023 100.659L24.0882 100.659 23.27 100.169 23.27 99.9833C23.0053 99.8631 22.9521 99.5559 22.7285 99.4342 22.7703 99.2987 22.8049 99.1612 22.8319 99.022 22.8395 98.903 22.8395 98.7837 22.8319 98.6646L23.238 98.4806 23.238 98.1369 23.5878 97.8221 23.676 97.9103 23.8479 97.343 24.257 97.343C24.391 97.263 24.4655 97.1116 24.4471 96.9566 24.4631 96.8573 24.4967 96.7615 24.546 96.6738L25.0023 96.3118 25.5011 96.1308 25.5011 95.6502C25.781 95.5848 25.8418 95.2563 26.1354 95.1605 26.181 94.9825 26.1658 94.7392 26.511 94.7468 26.692 94.7468 26.876 94.6084 27.054 94.5354L27.1939 94.6646C27.2289 94.149 27.6928 93.9726 27.9772 93.6411L27.9772 93.2319C28.1445 93.0251 28.3392 92.8441 28.3027 92.5566 28.4456 92.4319 28.6494 92.5825 28.7924 92.4046 28.8928 92.2844 29.0707 92.2297 29.2487 92.1278 29.343 91.9468 29.4586 91.7278 29.5726 91.5072 29.6182 91.419 29.6578 91.3278 29.7065 91.2395 29.7551 91.1513 29.7932 91.0388 29.8388 91.0373 30.038 91.0373 30.1308 90.8852 30.2662 90.7848L30.7224 90.4654 30.8836 90.0471 31.2928 90.0258 31.2928 89.6608C31.7688 89.5209 32.0289 89.1331 32.3711 88.8198L32.3985 88.5551 32.6175 88.5551C32.9384 88.2874 33.162 87.962 33.5513 87.7141L33.8281 87.1376 34.1947 87.1376 34.1947 86.6281 34.5202 86.6281C34.6996 86.4912 34.8243 86.3422 34.9764 86.2935 35.165 86.2357 35.1194 86.0122 35.308 85.9468 35.463 85.8655 35.5857 85.7341 35.6563 85.5741L35.9194 85.1179 36.3042 85.0996C36.581 84.8745 36.4973 84.3741 36.9779 84.4046L36.9779 84.0547 36.6738 83.8631 36.6738 83.5011 36.2646 83.3491C36.2433 82.9931 35.8479 83.0114 35.6 82.8289L35.6 82.4669C35.3749 82.4167 35.2304 82.3148 35.2852 82.0487 34.981 81.9833 34.6981 81.8874 34.5247 81.6046L34.5247 81.3186 34.0852 80.9369 33.8905 80.9141 33.8738 80.6327 33.3551 80.4806 32.6996 80.9703C32.6996 81.0738 32.689 81.1939 32.6829 81.3141L32.4852 81.5118 32.4852 81.8525 31.1163 83.384 30.8989 83.165C30.8791 83.3171 30.8639 83.4388 30.8426 83.6061 30.2844 83.8388 30.0897 84.4958 29.5787 84.8395L29.673 84.9445 29.0494 85.6456 28.7787 85.6456C28.5004 86.3027 28.3605 86.3148 27.9498 86.4061 27.8534 86.5113 27.7693 86.6271 27.6989 86.7513 27.666 86.8619 27.6502 86.9767 27.6517 87.092 27.5498 87.1635 27.4479 87.2228 27.3582 87.2989 27.2684 87.3749 27.1802 87.4738 27.089 87.565 26.9369 87.6228 26.724 87.4996 26.5992 87.7597L26.581 88.076 26.1597 88.2616 26.1293 88.5338 25.8494 88.5521 25.8494 88.9734C25.816 89.0205 25.8099 89.0403 25.7962 89.0479 25.6461 89.1185 25.5011 89.1998 25.3627 89.2913 25.2106 89.4084 24.9521 89.4175 24.9445 89.6867 24.6403 89.9407 24.4441 90.3148 23.9924 90.3711 23.8768 90.3848 23.7779 90.5354 23.6791 90.619L23.6791 90.9612 22.8137 91.5376 22.5627 91.5376C22.4745 91.6365 22.3179 91.7323 22.3057 91.8418 22.2844 92.035 22.1065 91.9407 22.0411 92.0487 21.9574 92.1527 21.859 92.2438 21.749 92.3194L21.749 92.5627 21.4008 92.9126C21.2395 92.9399 21.0844 92.946 20.9947 93.1498 20.8751 93.3729 20.7378 93.586 20.584 93.7871L19.9757 93.7871C19.8713 94.1135 19.5685 94.3352 19.2259 94.3361L19.0525 94.6403C18.6616 94.6966 18.3665 94.4882 18.0837 94.3833L17.4905 93.1148C17.53 92.8335 17.565 92.5825 17.6015 92.3255L17.9605 92.1643C18.0471 92 18.1384 91.822 18.2266 91.6563L18.4669 91.6563C18.4928 91.6274 18.5338 91.603 18.5323 91.5787 18.5217 91.2395 18.8061 91.0479 18.9338 90.7787 18.9567 90.7316 19.0449 90.7011 19.1072 90.6905 19.3932 90.6388 19.5057 90.4517 19.5224 90.1825L19.9209 89.7856 19.9346 89.5726C20.1856 89.2243 20.6738 89.0068 20.6951 88.4532L20.9521 88.4532 21.0297 88.2327 21.2745 88.2129C21.2938 88.099 21.3352 87.9901 21.3962 87.892 21.4773 87.8332 21.5702 87.7927 21.6684 87.7734 21.7871 87.6319 21.8631 87.457 21.9863 87.4099 22.3285 87.2821 22.476 86.9795 22.6464 86.7163 22.7681 86.4893 22.964 86.311 23.2015 86.2114L23.3901 86.3148 23.5848 85.8662 23.8722 86.003 23.8722 85.6274C24.0867 85.3932 24.3498 85.2198 24.3285 84.8867L24.8517 84.47 25.2228 84.47 25.6593 83.4145 26.0456 83.3947C26.1521 83.0433 26.3103 82.7042 26.7711 82.6494L26.7711 82.397C27.1605 82.0961 27.4931 81.7284 27.7536 81.311L28.3817 81.1468C28.3506 80.9203 28.4827 80.7031 28.6981 80.6266 29.0844 80.4912 29.3338 80.1962 29.5711 79.9072 29.7004 79.7551 29.8662 79.6532 30.0015 79.4981L30.0015 79.2335 30.8395 78.397 30.9156 78.5932 31.0875 78.5217 31.2502 78.4548C31.2213 78.2722 31.1939 78.0943 31.1574 77.8601L30.9475 77.6228 31.0996 77.419 30.8745 77.2456 30.9855 77.1057 30.549 76.8274C30.6281 76.4213 30.435 76.0517 30.3148 75.6213L30.549 75.4692 30.549 74.9521 31.1194 74 31.4996 73.8099 31.4996 73.6122 31.9559 73.1787 31.8297 72.7574 32.3057 72.549 32.1901 72.4335 32.4091 71.9863C32.7939 71.7886 32.8867 71.3901 33.0859 71.0738L33.308 71.0738 33.308 70.3559 33.7643 69.8905 34.1247 70.0015C34.2662 69.9452 33.9589 69.7901 34.1749 69.746 34.1357 69.6402 34.1051 69.5312 34.0836 69.4205 34.0748 69.2827 34.0748 69.1446 34.0836 69.0068L34.4776 69.1589 34.5278 68.8654 35.2639 68.7133 35.2639 68.3392 35.4753 68.1293 35.4753 67.6806 35.7019 67.6015C35.6624 67.4342 35.6198 67.2624 35.5711 67.0601 35.6122 67.019 35.6517 66.946 35.708 66.9277 35.9376 66.8548 36.1871 66.8182 36.2281 66.5141 36.3924 66.4472 36.5323 66.2966 36.7407 66.362 36.7589 66.4715 36.7741 66.5703 36.8015 66.7361L37.1833 66.4319C37.2353 66.1364 37.1781 65.8321 37.0221 65.5757 36.9713 65.4514 36.9713 65.3121 37.0221 65.1878 37.0803 65.0138 37.17 64.852 37.2867 64.7103 37.3877 64.6061 37.4263 64.4564 37.3886 64.3163 37.4703 64.3051 37.5533 64.3051 37.635 64.3163 37.6952 64.3459 37.7506 64.3843 37.7992 64.4304L37.7186 64.7909 37.9361 65.0084 37.3065 65.276 37.743 65.5118C37.997 65.3795 37.9802 65.0555 38.2068 64.9369 38.3194 64.7954 38.1688 64.546 38.4228 64.4548 38.5308 64.5871 38.6342 64.397 38.762 64.4319 38.8106 64.3118 38.9065 64.1886 38.9019 64.0684 38.8681 63.68 39.0958 63.3163 39.4601 63.1772 39.5011 63.1574 39.527 63.1027 39.5498 63.0753 39.5878 62.873 39.235 62.8502 39.3977 62.5749L39.5894 62.9004 39.7901 62.2464 39.4859 62.3741 38.9262 62.2433 38.7559 61.749 38.2814 61.276 38.2814 60.8897 37.927 60.3741 37.5939 60.3741 37.7688 60.7574 37.3962 60.7863C37.4251 60.6342 37.4479 60.5065 37.4753 60.3559L36.8867 60.2038 36.8608 60.1034 36.0456 59.8008 36.0882 59.7506C35.9559 59.6274 35.8175 59.5118 35.6943 59.381 35.5711 59.2502 35.489 59.1285 35.3901 59.0008L35.4829 58.8958 35.2563 58.6692 34.543 58.4989C34.4532 58.1947 34.6555 58.1186 34.8471 58.0426L34.8471 57.8038 34.2935 57.3384C34.3103 57.2821 34.3422 57.1711 34.3772 57.0479 34.2433 56.9354 34.1217 57.0753 33.9833 57.13L33.6913 56.9855C33.6517 56.9186 33.5939 56.8167 33.5316 56.7087L33.1635 56.692C33.1483 56.654 33.1224 56.6236 33.124 56.5947 33.1346 56.4791 33.124 56.3528 33.0084 56.3255 32.727 56.2555 32.6692 56.0213 32.5749 55.7795 32.6753 55.5072 32.9202 55.2395 32.7605 54.8791L32.6464 54.9734C32.4297 54.7189 32.4176 54.3484 32.6175 54.0806 32.7376 53.9848 32.8837 53.8722 33.019 53.7658L33.019 53.5209 33.2669 53.4312C32.9947 53.3506 32.876 53.1407 32.6266 53.0844L32.6905 52.9688 33.1863 52.9369C33.2926 52.7907 33.4619 52.7039 33.6426 52.7027 33.6426 52.47 33.8859 52.5171 33.997 52.4122 34.108 52.3072 34.2464 52.1764 34.4152 52.0182 34.4152 51.9224 34.3985 51.7764 34.3817 51.5483 34.4487 51.4221 34.5612 51.2122 34.6859 50.9643L34.9795 51.1954 34.7148 51.5589 34.8213 51.711 35.6183 50.6981C35.6882 50.7513 35.7262 50.7985 35.7703 50.8091 35.8456 50.8178 35.9217 50.8178 35.997 50.8091L35.997 50.5551 36.4821 50.3468 36.33 50.0289 36.4821 49.8525 36.9384 49.8525 37.3506 49.0068 37.6213 49.0068 38.0228 48.5171 38.216 48.6342C38.292 48.5262 38.3757 48.4076 38.4532 48.2951 38.4243 48.1962 38.3939 48.0882 38.3605 47.9741L38.6494 47.7338C38.6875 47.8981 38.7133 48.0046 38.7392 48.108L38.8913 48.1278C38.9019 47.9255 38.9125 47.7232 38.9217 47.5696 39.0251 47.2745 39.2745 47.4175 39.4403 47.343L39.2487 46.9962 39.8966 46.4608 40.1795 45.7734 40.3589 46.0958 40.4669 45.8662C40.5065 45.9483 40.5414 46.0182 40.6008 46.1414L40.7985 45.8783 40.8624 46.0456 41.1878 46.216 41.4464 45.9316 41.0221 45.8297 41.2897 45.6365 41.1285 45.1802 41.4935 44.9643 41.4388 44.911 41.7673 44.911 41.8327 45.0951 42.2236 44.9779 42.2357 44.8471 41.6928 44.3057C41.8099 43.9422 41.9224 43.6745 42.2038 43.5179 42.3027 43.5498 42.4152 43.5787 42.5217 43.6243 42.6259 43.6736 42.7275 43.7285 42.8259 43.7886L42.2631 43.9817C42.3103 44.1338 42.4259 44.1567 42.5749 44.1643 42.7106 44.1854 42.8435 44.2205 42.9719 44.2692L42.9719 43.5589 42.6814 43.3901 42.9217 42.8989C43.3376 42.8179 43.7306 42.6467 44.073 42.397L43.9909 42.0274 44.4243 41.2836 44.7361 41.2836C44.9495 41.1024 45.0561 40.8251 45.019 40.5475 45.2973 40.4228 45.3886 40.6464 45.5483 40.7696L45.5483 41.2867C45.6198 41.235 45.6684 41.2183 45.6791 41.1878 45.7408 40.9734 45.9167 40.8111 46.1354 40.7665L46.2555 40.3544C46.2342 40.257 46.2068 40.1369 46.1856 40.0426L46.8061 39.7855C46.8274 39.6471 46.8411 39.5483 46.8608 39.4266 46.9764 39.5985 47.0646 39.4433 47.165 39.4418L47.565 39.4418 47.565 39.0753 47.9452 38.8046 48.3103 38.7665 47.9133 38.2935C47.892 38.0289 48.0106 37.9209 48.2586 37.9407 48.3696 38.0852 48.4806 38.2327 48.6342 38.4319L48.6342 37.8601 48.4532 37.6791 48.8989 37.384 49.2122 37.673C49.4129 37.4068 49.6684 37.2578 49.8677 37.0221 50.0198 36.835 50.2646 36.7179 50.4897 36.5551L50.4 36.3605 50.5856 36.3087 50.5856 35.8144 51.0418 35.3703C51.2152 35.4996 51.4175 35.5696 51.6198 35.3703L51.7278 35.1589C51.6989 34.9719 51.676 34.8259 51.6563 34.692L51.2137 34.1156 51.7369 34.0745 52.1521 33.6593 52.4167 33.6593 52.7103 33.308C52.797 33.3582 52.8624 33.4008 52.9749 33.4601L53.2791 33.1696C53.1848 32.8365 53.3947 32.5688 53.5361 32.2707L53.7719 32.2449C53.786 32.2126 53.7982 32.1796 53.8084 32.146 53.8236 32.0806 53.8084 31.9787 53.8525 31.9544 54.1901 31.743 54.2357 31.3065 54.5445 31.0814 54.581 31.057 54.6494 31.0814 54.7468 31.0814L55.0205 30.7559 55.2243 30.7559 55.6684 29.8951 56.397 30.1384 56.6631 29.7703 56.9141 29.9087C57.0509 29.7825 57.3202 29.8129 57.3582 29.4966L57.054 29.53C57.0129 29.3947 56.727 29.4357 56.6875 29.1316L57.4327 29.3749 57.4327 28.7878C57.8084 28.6966 57.8388 28.1795 58.2996 28.1795L58.3148 27.924 58.6342 27.7156 58.6342 27.4798C58.8395 27.4008 58.908 27.2213 58.9764 27.0236L59.6593 27.0236 60.1156 26.6084 60.1962 26.689 60.3939 26.4989C60.2935 26.3726 60.2099 26.2692 60.1293 26.1703L60.3985 25.6122 60.543 25.7475 60.4456 25.9954C60.7787 25.7916 61.1392 25.7354 61.4692 25.6015 61.7925 25.4476 62.1054 25.2729 62.4061 25.0783L62.2008 24.9262 62.4563 24.7331 61.8738 24.5247 61.8738 24.1217 62.0532 24.1217C62.0684 24.2251 62.0836 24.324 62.1034 24.4654 62.3894 24.3133 62.6327 24.1186 62.9414 24.1125 63.2502 24.1065 63.5498 24.1125 63.889 24.1125L63.889 24.5293 64.3057 24.5293C64.5293 24.6023 64.5886 24.8182 64.797 24.8806 64.9186 24.9171 64.9034 25.2076 65.1544 25.1848 65.2106 25.3688 65.162 25.6152 65.4814 25.6274 65.6335 25.6274 65.7856 25.7597 65.9376 25.8342L65.9376 26.2418 66.3346 26.2418C66.3544 26.3544 66.3726 26.4532 66.3924 26.5582L67.1179 26.1217 67.1179 25.7627 67.5133 25.6502 67.8053 25.7795C67.7323 25.5894 67.6928 25.4905 67.635 25.343L67.9133 25.2106 68.1338 25.311C68.2449 25.1346 68.2144 24.9962 68.0669 24.9049L68.2403 24.5384 68.8973 24.5384C68.9582 24.2099 68.9475 23.8601 69.3536 23.749L69.3536 23.4449 70.1278 22.981 69.9863 22.6966 70.4258 22.3042 70.5886 22.2859 70.8259 21.7171 71.6471 21.5255 71.4829 21.1741 71.8707 20.9049C71.965 20.9049 71.8327 21.2806 72.1278 21.2091L72.1278 20.7985 72.5734 20.8441 72.8913 20.7544C72.8913 20.7087 72.9019 20.6433 72.876 20.616 72.7649 20.5332 72.7419 20.376 72.8246 20.2648 72.8467 20.2351 72.8753 20.2106 72.908 20.1932L73.2259 20.5125 73.3186 20.4548C73.2867 20.3407 73.2532 20.2266 73.2091 20.0745L73.7354 19.7703C73.8129 19.5574 73.9452 19.3688 74.2342 19.3886 74.3346 19.1407 74.4335 18.8973 74.5384 18.6281L74.797 18.7483 74.835 18.292 74.9871 18.1004 75.1924 18.1992C75.2099 18.1979 75.2265 18.191 75.2395 18.1795 75.3551 18.0715 75.3916 17.9072 75.5711 17.8342 75.6836 17.7856 75.7506 17.6289 75.8844 17.4601 75.8844 17.4601 75.8935 17.3795 75.9057 17.276L76.1992 17.2563C76.1992 17.1772 76.2068 17.0935 76.2129 16.9688L76.5977 16.9308 76.8061 16.7209 77.2304 16.7209C77.2897 16.5262 77.3414 16.3544 77.3901 16.1871L77.6867 16.3392 77.6867 15.9772C77.8084 15.7779 78.0259 15.7049 78.0456 15.4646L78.4259 15.4646 78.7209 14.9445C78.8211 14.8893 78.9116 14.8178 78.9886 14.7331 79.0344 14.6341 79.0602 14.5272 79.0646 14.4183L80.1293 14.2555 80.2418 14.0243 80.2981 14.2418C80.619 14.3027 80.9719 14.2418 81.3627 14.2829 81.3332 14.3193 81.3057 14.3574 81.2806 14.397 81.2617 14.4413 81.2465 14.4871 81.235 14.5338L81.9954 14.838 81.8677 14.9901 82.1034 15.0205C82.2709 15.147 82.445 15.2642 82.6251 15.3719 82.7909 15.4616 82.7133 15.6243 82.7681 15.7369L83.2091 15.6289 83.0662 15.997C83.0829 16.0259 83.0981 16.0791 83.1148 16.0806 83.3232 16.0943 83.4084 16.2525 83.4935 16.4015 83.6078 16.6134 83.789 16.7814 84.0091 16.8791 84.1737 16.9489 84.3136 17.0665 84.4106 17.2167 84.6008 17.5087 84.8989 17.7323 85.1711 18.0091L85.5179 17.9285 85.9741 18.2859 85.8357 18.5901 86.4441 18.7681 86.6433 19.0722 86.8776 19.0722 87.1437 19.3414 87.1437 19.6639 87.6259 19.8312 88.0015 20.5521 88.2874 20.5871C88.3787 20.6905 88.254 20.876 88.4395 20.9567 88.5486 21.0225 88.6505 21.0995 88.7437 21.1863L88.765 21.3856 89.4692 21.7338 89.5589 21.6456C89.7749 21.8662 89.7916 22.1521 89.854 22.4791L90.0897 22.6312C90.0228 22.7468 89.9833 22.8183 89.9376 22.8897 90.0853 23.0572 90.2984 23.1521 90.5217 23.1498 90.5901 23.3658 90.7802 23.4205 90.9414 23.4768L91.1696 23.8449C91.2015 23.6806 91.2228 23.5726 91.2456 23.4601L91.3977 23.5711 91.8023 23.1665C92.2388 23.1148 92.2388 23.1133 92.2951 22.7757L92.7179 22.4015 92.9232 22.3772C92.9232 22.2525 92.9369 22.1323 92.9414 22.0426 93.0786 21.9614 93.2018 21.8587 93.3065 21.7384 93.3795 21.6198 93.5863 21.7156 93.5939 21.4875 93.5939 21.3354 93.8266 21.3202 94.0122 21.2989L93.924 21.1802 94.2768 20.6038C94.5399 20.5764 94.7696 20.435 94.7757 20.0989L95.1605 19.8327 95.6745 19.8327 96.0365 20.2525 96.3513 20.2525 96.3696 20.5034C96.473 20.5779 96.6738 20.6646 96.6738 20.7331 96.6555 20.9734 96.9186 20.8456 96.9536 20.9916 96.9886 21.1376 97.0373 21.2426 97.0874 21.3871L96.9202 21.7095C96.984 21.8221 97.2046 21.8722 97.0722 22.1658 96.9202 22.2586 96.8365 22.5247 96.5992 22.6722 96.4856 22.7489 96.4082 22.8687 96.3848 23.0038 96.3483 23.4601 95.9924 23.5027 95.673 23.6122 95.5848 23.7643 95.5285 23.9787 95.3916 24.0684 95.2259 24.1719 95.1848 24.4365 95.0251 24.4304 94.8152 24.4304 94.9384 24.6814 94.7468 24.6798 94.6692 24.6798 94.5947 24.876 94.508 24.9719 94.4015 25.0905 94.2981 25.2441 94.1612 25.2958 93.857 25.4099 93.8221 25.6426 93.7962 25.9042L93.384 26.0806 93.384 26.4395C93.7749 26.5171 93.9011 26.9323 94.2692 27.0586L94.149 27.2745C94.1583 27.2952 94.17 27.3145 94.184 27.3323 94.2146 27.3763 94.2532 27.414 94.2981 27.4433 94.4999 27.5151 94.6935 27.6079 94.876 27.7201 95.0464 27.8555 95.1422 28.0821 95.3065 28.2281 95.4251 28.3331 95.6106 28.3681 95.8175 28.4639 95.9696 28.5719 96.2205 28.689 96.3589 28.8897 96.4973 29.0905 96.6114 29.2882 96.8578 29.3719 96.8882 29.381 96.8913 29.4601 96.9125 29.5057 96.986 29.6468 97.1419 29.7247 97.2989 29.6989 97.5087 29.9894 97.5057 30.3574 97.7004 30.6662 97.8383 30.8707 98.0398 31.0242 98.2738 31.1027 98.327 31.2228 98.3787 31.3445 98.4259 31.4494L99.0677 31.8707 98.9156 32.038C99.2091 32.1734 99.2319 32.6266 99.6639 32.5916L100.186 33.6319C100.467 33.6604 100.721 33.8103 100.882 34.0426L100.882 34.3468C101.13 34.6088 101.43 34.816 101.763 34.9551 101.944 35.0251 102.006 35.2593 102.248 35.2593 102.301 35.4829 102.356 35.7156 102.4 35.8996L102.919 36.6814C102.903 36.7042 102.897 36.724 102.887 36.7285 102.84 36.7437 102.791 36.7544 102.722 36.7726L102.722 37.0449C103.001 37.0236 102.989 37.3323 103.179 37.4874L103.405 37.4874C103.533 37.6654 103.649 37.8312 103.761 37.9878 103.627 38.1597 103.703 38.5004 103.341 38.4943L103.341 38.984 103.051 39.016C103.036 39.1103 103.022 39.2076 103.004 39.3308L102.878 39.2319 102.681 39.3445 102.544 39.2182 102.275 39.489C102.3 39.816 102.3 40.1445 102.011 40.4015L101.563 40.2631C101.495 40.8167 101.147 41.1209 100.719 41.3551 100.677 41.3232 100.637 41.2897 100.595 41.2608 100.583 41.2532 100.56 41.2608 100.532 41.2608L100.26 41.6365C100.298 41.8266 100.333 42.0046 100.353 42.1049 100.032 42.473 99.5255 42.4852 99.3399 42.9567L98.9916 42.7787C98.7985 42.9483 98.704 43.2041 98.7407 43.4586 98.7011 43.4981 98.6798 43.5331 98.6494 43.5468 98.3703 43.5633 98.148 43.7863 98.1323 44.0654 98.063 44.277 97.8913 44.4389 97.676 44.4958 97.4342 44.5612 97.2395 44.8 96.9521 45.0068L97.4585 45.0068C97.4251 45.0707 97.4144 45.1164 97.4008 45.1164 97.2487 45.1164 97.0874 45.1164 96.9734 45.1164L96.8213 45.2684 96.8213 45.7947C96.2814 46.0395 96.0289 46.5871 95.565 46.9323L95.2608 46.9323C95.089 47.2198 94.8867 47.492 94.876 47.8449 94.7757 47.8966 94.6722 47.997 94.5719 47.997 94.2677 47.997 94.2373 48.1795 94.2175 48.4L93.5924 48.7239 93.5924 49.1194 93.2319 48.9734C93.1772 49.0342 93.0798 49.0996 93.057 49.1833 93.0342 49.2669 93.092 49.3734 93.1087 49.4494L92.4517 50.0578 92.0928 50.0578 92.0928 50.4928 91.6913 50.4928 91.0008 51.1833C91.0996 51.2821 91.2259 51.4023 91.343 51.53 91.4327 51.6289 91.5118 51.7384 91.6076 51.857L91.527 52.1414C91.6456 52.2084 91.743 52.2722 91.8464 52.3179 91.9498 52.3635 92.0669 52.3894 92.1764 52.4289 92.4074 52.4935 92.555 52.7191 92.5217 52.9567 93.2122 53.2 93.1665 53.8692 93.4221 54.438L93.6106 54.5278 93.4692 54.7757C93.7095 54.8867 93.9407 55.0509 94.1932 55.0935 94.4456 55.1361 94.5703 55.2243 94.5567 55.4859 94.5567 55.5209 94.6175 55.5589 94.6631 55.6091L94.511 55.6502C94.4167 55.8418 94.3148 56.0304 94.2327 56.2251 94.1338 56.4563 94.3665 56.6464 94.3255 56.8882L93.9209 57.0722C93.8829 57.5285 93.6091 57.7886 93.1802 57.9163 93.1285 58.0852 93.1589 58.289 92.8882 58.3346 92.7247 58.3874 92.5706 58.466 92.4319 58.5673 92.3787 58.8213 92.3316 59.0509 92.2798 59.3278L91.8236 59.1894C91.6167 59.2821 91.6365 59.4631 91.6563 59.7186 91.6228 59.7399 91.5513 59.7932 91.4753 59.8373 91.1711 60.0122 90.911 60.2038 90.8821 60.6068 90.8821 60.7103 90.7072 60.8106 90.6008 60.8973 90.492 60.9755 90.3789 61.047 90.2616 61.1118L90.0639 61.1118 89.0859 61.8068 89.1848 61.9331C89.0327 61.9833 88.7863 61.9574 88.7681 62.1323 88.7437 62.3559 88.5034 62.2753 88.438 62.4958 88.438 62.5475 88.4289 62.6677 88.4243 62.7407L87.7947 63.349 87.7947 63.6897 87.2791 63.6897 87.2426 63.8586 86.622 64.0289C86.5703 64.216 86.5201 64.3924 86.4411 64.6738 86.1962 64.8882 85.8616 65.165 85.5437 65.4586 85.2586 65.7542 85.0036 66.0777 84.7833 66.4243 84.6184 66.6736 84.3863 66.8713 84.1141 66.9947 83.8949 67.0543 83.7338 67.2408 83.7065 67.4662 83.676 67.6684 83.5163 67.8509 83.4023 68.0669L83.1468 68.0973 82.2449 68.8973C82.2259 68.9927 82.1859 69.0826 82.1278 69.1605 82.0578 69.235 81.9163 69.2441 81.8008 69.2836L81.8008 69.4798C81.7855 69.5057 81.781 69.527 81.7688 69.5331 81.6487 69.5863 81.527 69.638 81.3901 69.6958 81.3384 69.8388 81.2806 70 81.2061 70.1977L81.0023 70.2084C80.7529 70.3605 80.6373 70.6297 80.4076 70.8076 80.1779 70.9855 80.0547 71.2289 79.8631 71.4707 79.962 71.7125 79.749 71.8829 79.6456 72.1034L79.1893 72.2738 78.7544 72.9156 78.2084 72.7544 78.0806 73.1681 78.184 73.3384 77.8251 73.6122 77.8251 73.8175 77.4144 74.003C77.4327 74.2722 77.3141 74.4213 77.0236 74.4 77.0236 74.7042 76.689 74.5521 76.5749 74.7316 76.4611 74.8762 76.3349 75.0105 76.1977 75.1331ZM56.9125 34.1795C56.5855 34.2008 56.3528 34.2768 56.2403 34.5886 56.1592 34.7379 56.0601 34.877 55.9452 35.0023 55.889 35.0844 55.8433 35.1741 55.7932 35.2715 55.5179 35.1848 55.4509 35.4068 55.3673 35.5757L55.0859 35.597 55.0859 35.8403 54.3589 36.2692 54.3589 36.5262C54.0259 36.7757 53.6897 37.0722 53.3125 37.3004 53.0847 37.4216 52.9121 37.6259 52.8304 37.8707 52.7354 37.9522 52.6336 38.0254 52.5262 38.0897 52.4123 38.1363 52.2954 38.1754 52.1764 38.2068L52.3072 38.4897 51.349 39.4418C51.2753 39.6672 51.1246 39.8595 50.9232 39.9848L50.6601 39.9848C50.3209 40.1916 50.3483 40.5536 50.257 40.7559 50.0836 40.8471 49.9848 40.908 49.8814 40.9521 49.7779 40.9962 49.6395 41.054 49.5407 41.1042 49.3886 41.53 49.1011 41.8357 48.8152 42.1384L48.5673 42.1384 48.111 42.5278 48.2388 42.7833 47.9498 43.1939 47.308 43.3369C47.2593 43.454 47.2243 43.565 47.1711 43.6669 47.116 43.7729 47.0531 43.8747 46.9825 43.9711 46.9019 44.0821 46.8046 44.181 46.7316 44.2966 46.5171 44.6418 46.2753 44.9445 45.8433 45.0357 45.7214 45.0716 45.6406 45.1872 45.6487 45.3141 45.6219 45.4411 45.5746 45.5627 45.5087 45.6745L45.1711 45.6745C44.7528 46.1034 44.324 46.5201 43.7825 46.6829L43.4616 47.416 43.0053 47.276C42.8213 47.5057 42.8441 47.8342 42.6068 48.0365 42.3696 48.2388 42.1734 48.4624 41.9605 48.6753L41.7445 48.6753 41.4814 48.9369 41.6 49.089 41.2684 49.4297 41.1163 49.3232C40.8943 49.5711 40.7057 49.8601 40.4441 50.0487 40.2543 50.2082 40.0835 50.3889 39.9346 50.5871L39.6958 50.5871 39.2487 51.1179 39.0327 51.1437C38.9582 51.27 38.8806 51.4023 38.8015 51.527 38.7224 51.6517 38.6494 51.8129 38.5521 51.8418 38.2662 51.9209 38.1049 52.1536 37.8768 52.2981 37.739 52.3798 37.6468 52.5208 37.6274 52.6798 37.6157 52.8129 37.6157 52.9468 37.6274 53.0798L37.3734 52.9901 37.0951 53.2654 37.0951 53.8738C36.838 54.0989 36.4867 54.1779 36.3529 54.5217 36.4654 54.6342 36.5612 54.8106 36.6966 54.8471 36.9034 54.9034 36.8852 55.1087 37.0236 55.203 37.162 55.2973 37.3475 55.4297 37.3932 55.5802 37.4996 55.9422 37.7825 56.1399 38.0015 56.3863 38.0532 56.3863 38.1019 56.3726 38.1232 56.3863 38.4046 56.6129 38.9217 56.5643 38.943 57.0996 38.943 57.165 39.0616 57.2274 39.1255 57.2897 39.2826 57.4342 39.4322 57.5865 39.5741 57.746 39.6335 57.8473 39.6771 57.9571 39.7034 58.0715 40.0806 58.143 40.2905 58.5825 40.7452 58.5278L40.8973 59.2882 41.492 59.2882C41.4881 59.5244 41.5828 59.7516 41.7536 59.9148 41.889 60.0669 42.1095 60.1597 42.1384 60.397 42.5262 60.7118 42.6859 61.2547 43.1833 61.4251L43.346 62.1095C43.6106 62.2768 43.8616 62.4426 44.1186 62.5932 44.3757 62.7437 44.6935 63.0373 44.6996 63.2426 44.7103 63.5468 44.9171 63.5468 45.0935 63.5878 45.2228 63.8357 45.346 64.0715 45.4555 64.2783 45.5985 64.3185 45.7445 64.3469 45.892 64.3635 46.0318 64.3565 46.1708 64.3372 46.3072 64.3057 46.3148 64.4578 46.3209 64.584 46.3224 64.6236 46.5293 64.8319 46.692 64.9931 46.8669 65.1711L47.0555 65.1817 47.0783 65.451C47.5605 65.8951 47.9376 66.4456 48.4882 66.8289L48.4882 67.1407 49.3232 67.6669 49.3232 68.1125C49.4175 68.2099 49.5027 68.2996 49.5407 68.3407L49.9772 68.2783 49.9772 68.6844C50.3833 68.7589 50.5992 69.1878 51.0129 69.1544 51.3019 69.8342 51.3019 69.8342 51.5605 69.8798L51.9072 70.1612 51.7643 70.5308 52.3407 70.5308C52.5049 70.8456 52.6449 71.1224 52.797 71.4114L53.1209 71.4114 53.3932 72.3057 53.9498 72.5871 54.1855 72.5871C54.4411 72.7133 54.3057 72.9308 54.3376 72.9947 54.711 73.2563 55.0329 73.5848 55.2867 73.9635L55.9574 73.9635 56.473 74.2114 56.6464 74.5886 56.8137 74.6388 56.8304 74.8639C56.9297 74.9189 57.023 74.9842 57.1087 75.0586 57.3065 75.276 57.5544 75.4798 57.6624 75.7384 57.7703 75.997 57.9787 76.0091 58.1597 76.1049 58.2129 76.1209 58.2683 76.1291 58.324 76.1293L58.324 76.4091 58.7528 76.8578C58.8198 76.9293 58.8745 77.0281 58.9567 77.0677 59.2027 77.184 59.4259 77.3437 59.6152 77.5392 59.7521 77.6608 59.6639 77.8114 59.7673 77.9346L60.2236 77.9346 60.1658 78.0106 60.47 78.1932 60.47 78.4791C60.591 78.6249 60.7232 78.7614 60.8654 78.8867 61.0179 78.9855 61.1781 79.0719 61.3445 79.1452 61.2867 79.346 61.2411 79.5072 61.1924 79.6821L61.4114 79.8768 61.5711 79.781C61.7384 80.0228 61.8996 80.2586 62.0821 80.5247L62.0821 80.8867 62.803 81.308C62.8684 81.6228 62.8836 81.6426 63.2593 81.8449 63.124 82.3011 63.6426 82.1323 63.7506 82.33L63.6639 82.7361 64.0684 82.7361C64.1278 82.6084 64.1886 82.473 64.2616 82.3163 64.5171 82.3817 64.6205 82.2129 64.6996 81.9848L65.1863 81.9848C65.2213 81.8829 65.3004 81.7749 65.2776 81.6989 65.2 81.4509 65.5042 81.4068 65.5148 81.197 65.5484 81.0747 65.6436 80.9789 65.7658 80.9445 66.07 80.9445 66.1171 80.6175 66.3559 80.584L66.3559 80.3194 66.7939 79.9833 66.7939 79.3916C67.0008 79.057 67.3612 79.0783 67.5544 78.9916L68.003 78.3255C68.2783 78.4776 68.4243 78.0639 68.6814 78.2312 69.0175 77.749 69.0418 77.7247 69.3521 77.5498 69.2106 77.2608 69.2106 77.2608 69.4129 77.0707L69.7338 77.0707 69.673 77.0099 69.9087 76.9277 69.7825 76.8015 70.003 76.6966 70.003 76.438C70.1673 76.3209 70.3498 76.1916 70.5293 76.0593 70.6814 75.9498 70.8259 75.8388 70.9703 75.7247 71.1468 75.5878 71.3247 75.4525 71.4935 75.3065 71.6353 75.1579 71.812 75.047 72.0076 74.984 72.181 74.9384 72.2525 74.6464 72.4806 74.5734L72.4806 73.965 72.9004 73.965C72.9506 73.8205 73.0008 73.6806 73.0525 73.5498 73.1027 73.5331 73.1696 73.5331 73.1939 73.5011 73.3065 73.349 73.4373 73.2198 73.5468 73.0692 73.6563 72.9186 73.7627 72.7346 74.003 72.7802 74.0213 72.7802 74.0502 72.7392 74.0791 72.7133L74.0791 72.4426 74.3559 72.0304 74.7163 72.0304 74.8684 71.6167 75.0205 71.6C75.197 71.4479 75.3779 71.3734 75.4251 71.2456 75.4745 71.103 75.5866 70.9909 75.7293 70.9414L75.9148 70.546 76.1475 70.6692C76.2297 70.5034 76.2996 70.365 76.3544 70.257L76.8365 70 76.8806 69.6958 77.2867 69.4388C77.3049 69.2608 77.2198 69.0388 77.4479 68.949L77.6517 69.0814 77.8038 68.8654C77.6106 68.6829 77.7065 68.5354 77.8814 68.3954L78.3863 68.3954 78.7878 68.0213 78.7878 67.6973C79.054 67.4327 79.054 67.4327 79.092 67.4753 79.1011 67.5589 79.1103 67.6441 79.1194 67.7217L79.6243 67.8221C79.9057 67.603 79.854 67.2593 79.854 66.9506 79.9376 66.8684 80.1506 66.9202 80.0471 66.7148L79.7977 66.6114 80.1901 66.543 80.1901 66.2281 80.5156 66.3589C80.7909 66.2707 80.6798 66.035 80.6981 65.962L81.2167 65.3932 81.5528 65.524C81.6015 65.1635 81.4844 64.8137 81.743 64.5369L81.9452 64.5369 82.3605 64.1217 82.8548 64.0821 82.7027 63.8525 82.9019 63.7004C83.162 63.6259 83.4342 63.7673 83.6471 63.6L83.9042 63.7019 83.9042 63.0783C83.8586 63.0327 83.7521 62.9262 83.6487 62.8228L83.851 62.6205C83.9057 62.6509 83.965 62.7148 84.0137 62.7057 84.1932 62.6753 84.3696 62.6205 84.5612 62.5703 84.5749 62.2875 84.5034 61.9817 84.7559 61.7293 84.9612 61.8935 85.165 61.4996 85.3764 61.711L85.7445 61.457 85.7445 61.2167 86.1627 60.7985 86.5156 60.6464 86.5156 60.038 86.8593 60.0213C87.0114 59.7582 87.1468 59.5285 87.2837 59.2973 87.4478 59.2429 87.6283 59.2742 87.7643 59.381 87.7825 59.3962 87.8494 59.3521 87.9285 59.3217 87.8373 59.1985 87.7612 59.0966 87.6852 58.9977L87.7749 58.908 87.6639 58.7833 87.9087 58.6236C88.0091 58.4426 88.0608 58.3452 88.1156 58.2433 88.1703 58.1414 88.2023 58.0289 88.254 57.8966L88.7528 57.8144 88.9825 57.6487 89.1346 57.7886 89.3871 57.3916 89.3871 57.0875 89.7627 56.7042 90.0015 56.7042 90.2084 56.3802 90.7331 56.2418C90.8259 56.1049 90.9202 55.9681 91.0053 55.8449L90.4548 55.3779 90.5977 55.2061 90.1582 55.2061C89.997 54.9019 89.854 54.616 89.5133 54.6418 89.3979 54.4208 89.2592 54.2129 89.0996 54.0213 88.9185 53.8809 88.7221 53.7615 88.5141 53.6654L88.7681 53.4129 88.6403 53.0601 88.0091 53.0601 88.0091 52.7559 87.6046 52.3346 87.4996 52.4289C87.4814 52.3118 87.4646 52.2129 87.457 52.1612 87.1194 51.7871 86.7605 52.1749 86.4258 52.0776L86.5049 51.9848 86.1749 51.8327 86.3665 51.6411 86.0502 51.0464C86.1643 50.9308 86.2388 50.8578 86.2768 50.8198L86.2768 50.4015 86.0836 50.3422 86.0836 50.1156 85.816 49.8479C85.6395 49.8479 85.4403 49.7962 85.2897 49.8616 85.1392 49.927 85.0494 49.6928 84.87 49.8068 84.7452 49.8844 84.5414 49.8373 84.3559 49.8464L84.3559 49.4586 83.9757 49.0798 83.6259 49.0798C83.6517 48.6388 83.3034 48.4411 83.089 48.1886L83.0677 47.9605 82.6433 47.7567 82.6433 47.3004 82.2053 47.2259 82.6616 47.1346C82.6129 46.7909 82.2601 46.8441 82.1065 46.6479 82.2129 46.4791 82.3209 46.3042 82.4198 46.146L82.3194 46.0076C82.4517 45.927 82.581 45.8555 82.7087 45.7658 82.7255 45.7551 82.7255 45.7186 82.7087 45.7932 82.6631 45.673 82.6403 45.6091 82.616 45.5452L82.4335 45.7278 82.038 45.6654 81.9818 45.8586 80.9506 45.8586C80.9095 45.638 80.9886 45.4251 80.8654 45.1681L80.5399 45.597C80.2707 45.4357 79.9939 45.3354 79.9316 45.0023 79.565 45.1316 79.4342 44.7726 79.1483 44.73 79.1224 44.2068 78.8091 43.9346 78.3407 43.7962L78.4411 43.5894 78.3528 43.3354C78.546 43.3354 78.8973 43.4236 78.8973 43.4722 78.8973 43.7171 79.1194 43.7049 79.2426 43.8053 79.2578 43.819 79.2913 43.8053 79.3247 43.816L79.3247 43.6289 78.8319 42.9049 78.7544 42.9749 78.1871 42.5688 77.6167 42.5354C77.6167 42.2023 77.8768 42.2707 78.0106 42.2099L77.924 41.8859C77.7932 41.784 77.6989 41.7186 77.6198 41.6411 77.5407 41.5635 77.4449 41.4631 77.3658 41.381 77.0464 41.3323 76.9369 41.2684 76.8806 41.0038 76.8639 40.8659 76.76 40.7547 76.6236 40.7285L76.4928 40.8441 76.3316 40.6586 76.3316 40.2479C76.0274 39.9437 76.0274 39.9437 75.8236 39.9072L76.0456 40.2829 75.5726 40.2829 75.5726 39.9224C75.2076 39.7703 75.0494 39.4251 74.7711 39.2441L74.4076 39.2167 74.4076 39.1513 74.8304 39.1027C74.7711 38.984 74.7255 38.8958 74.6692 38.7878L74.3392 38.7878C74.2814 38.7316 74.2433 38.6935 74.2053 38.654 74.1977 38.5354 74.1916 38.4152 74.1855 38.3224 74.1171 38.2221 74.0122 38.1825 73.9893 38.0776L74.2099 38.0182 74.0167 37.8221 73.6791 37.8221C73.6274 37.5544 73.4297 37.4525 73.2517 37.3658L73.2517 37.1103 73.4433 37.0586 73.4357 37.0053 73.1802 37.0053 72.8061 36.549 72.2312 36.3361 71.927 36.6023C71.8251 36.4624 71.7414 36.3468 71.6426 36.2144L71.4905 36.3042 71.1498 36.2129 70.9354 35.8905 70.5703 35.8905C70.3422 35.5422 70.3422 35.5422 70.33 35.2137L70.0913 34.981C69.9457 34.9515 69.802 34.9135 69.6608 34.8669 69.5235 34.8044 69.3895 34.7349 69.2593 34.6586 69.2182 34.4502 68.9886 34.3665 68.8806 34.1932 68.7726 34.0198 68.6829 33.8114 68.5901 33.6289L68.8532 33.3475 68.3544 33.165 68.1141 32.5855 67.5605 32.5855 67.416 32.3346C67.2091 32.2023 67.0175 32.1338 66.9095 31.997 66.7361 31.7779 66.6525 31.4981 66.4897 31.2624 66.4169 31.1595 66.4412 31.0172 66.544 30.9443 66.5477 30.9417 66.5513 30.9393 66.5551 30.9369 66.5551 30.9369 66.5551 30.9125 66.5475 30.9034 66.4061 30.6996 66.2433 30.7392 66.0684 30.8563L65.9011 30.6616 66.003 30.7118 66.0821 30.4076 66.4411 30.5734 66.4411 30.0867 65.7034 29.8236 65.8342 29.5589 65.4753 29.2897 65.8297 29.2228C65.4844 29.2487 65.1635 28.908 64.7924 29.1696L64.7498 28.9445 64.5034 28.6236 63.8464 28.5932 63.9985 28.3133C63.8129 28.2099 63.6213 28.1065 63.4357 27.9954 63.405 27.9697 63.3798 27.9382 63.3612 27.9027L63.4768 27.4464 62.9977 27.4464 62.6509 27.9848C62.5673 28.1125 62.3757 28.1627 62.3863 28.3574 62.181 28.3787 62.1597 28.5232 62.1658 28.6859 61.8768 28.7878 61.8312 29.1422 61.5787 29.2548L61.3049 29.2913C61.3595 29.5236 61.2887 29.7678 61.1179 29.9346 61.0464 30.0106 60.9049 30.0167 60.8137 30.0487 60.5624 30.5606 60.1477 30.9743 59.635 31.2243 59.4408 31.3118 59.2768 31.4546 59.1635 31.635 59.0008 31.9027 58.7072 32.0913 58.4335 32.3498 58.4592 32.5991 58.3573 32.8444 58.1627 33.0023L57.7278 33.0023 57.2715 33.3536 57.3916 33.5833 56.9354 33.9103ZM97.0373 35.4753 96.7331 35.0677C96.6426 35.0181 96.5478 34.9763 96.4502 34.943 96.3424 34.9276 96.2335 34.9215 96.1247 34.9247 96.0421 34.7729 95.9816 34.61 95.9453 34.4411 95.93 34.2068 95.6989 34.2357 95.6061 34.1019L95.743 33.8266 95.2867 33.5985 95.2867 33.3338C94.8578 33.2274 94.7726 32.7437 94.4243 32.5308L94.4243 32.2966 94.2357 32.2236 94.1673 32.0243 93.8935 32.0243 94.146 31.676 93.6882 31.4646C93.7232 31.2335 93.6471 31.0677 93.3612 31.0768 93.3101 31.0698 93.2646 31.0409 93.2365 30.9977 93.1239 30.7894 92.9156 30.9049 92.7939 30.8152L92.4167 30.4897C92.4015 30.3376 92.3909 30.2266 92.3787 30.0928L91.9133 30.0928C91.8555 29.9407 91.8099 29.8144 91.7612 29.6867L91.422 29.6867 90.911 29.2882 90.8943 29.1498C90.4532 28.654 90.073 28.2038 89.8981 27.5559L89.7034 27.3658 88.8471 27.197C88.8973 26.9977 88.9414 26.8213 88.9901 26.6251L88.6601 26.4122 88.7528 26.3011 88.4152 26.1414C88.2951 25.9087 88.2479 25.6654 88.111 25.5726 87.8592 25.3805 87.5678 25.247 87.2578 25.1817 87.2259 25.1737 87.1956 25.1603 87.1681 25.1422 87.1574 25.057 87.1483 24.9734 87.1392 24.8852L86.8532 24.838C86.7863 24.6357 86.9262 24.4183 86.73 24.2722 86.765 24.2327 86.8213 24.1977 86.8304 24.1536 86.8389 24.0401 86.8389 23.9264 86.8304 23.8129L86.4897 24.2692 86.1779 23.8251 86.2844 23.2669C85.9893 23.2228 85.9802 22.8106 85.6532 22.7711 85.6867 22.7316 85.7201 22.6935 85.7779 22.6312 85.2684 22.4091 84.7772 22.1749 84.5369 21.673 84.2321 21.5545 83.9617 21.3615 83.7506 21.1118L83.4068 21.092 83.1726 20.657C82.8791 20.3924 82.5232 20.2586 82.4319 19.8966L82.5369 19.7551C82.4548 19.7217 82.3711 19.7125 82.3376 19.6684 82.2429 19.5261 82.1322 19.3948 82.0076 19.2776 81.9667 19.2297 81.9352 19.1744 81.9148 19.1148 81.9148 19.1148 81.9407 19.092 81.9498 19.0768 81.9589 19.0616 81.9757 19.0281 82.0091 18.9643L81.6426 18.9643C81.4646 18.8304 81.4646 18.6084 81.235 18.5871 81.2639 18.3954 81.2913 18.2023 81.3186 18.0106 80.9932 17.9802 81.1011 18.2981 81.0144 18.4106L80.7361 18.4106C80.727 18.2692 80.7209 18.149 80.7118 17.9924L80.3939 17.8844 79.8905 17.3217C79.5346 17.5087 79.7262 17.9027 79.5042 18.0989L79.3232 17.9939 78.7528 19.0586 78.5399 19.0814 78.1019 19.8008 77.9057 19.6867 77.7354 19.8783 77.8266 20.2677 77.3703 20.1308 77.6608 20.5369 77.311 20.5932C77.2928 20.6981 77.2745 20.7954 77.2563 20.8973 76.8882 20.7681 76.7316 20.7452 76.619 20.8654L76.5293 20.9703C76.5749 21.092 76.6129 21.1909 76.6662 21.3262L76.108 21.3262 75.9483 21.7521C75.6335 21.7019 75.5605 21.9042 75.5605 22.0958L75.2152 22.3726 75.3506 22.5643C75.1331 22.727 74.9171 22.8913 74.6768 23.0738 74.6038 22.9734 74.543 22.8867 74.4882 22.8091L73.6776 23.8068 73.3171 23.8068 73.3171 24.2403C73.2192 24.3305 73.1145 24.4128 73.0038 24.4867 72.8992 24.5306 72.7907 24.5647 72.6798 24.5886L72.6798 24.8821C72.2935 24.8608 72.2631 25.2548 72.0426 25.4601 71.8221 25.6654 71.6167 25.9072 71.3764 26.1612L71.2243 26.1612C71.1618 26.2304 71.0952 26.296 71.0251 26.3574 70.9778 26.397 70.9275 26.4325 70.8745 26.4639 70.8654 26.6281 70.8624 26.6966 70.8624 26.6829 70.6373 26.8928 70.4456 27.0433 70.2875 27.2228 70.0616 27.5054 69.7696 27.7279 69.4373 27.8707 69.409 27.8913 69.3834 27.9151 69.3612 27.9422L69.3612 28.1643 68.6236 28.3392 68.6236 28.5293C68.6616 28.7894 68.9627 28.765 69.0631 28.9932 69.1635 29.2213 69.4357 29.2608 69.6715 29.2867 69.6715 29.4221 69.6836 29.5422 69.6897 29.676L70.1947 30.0426C70.2114 30.1384 70.2281 30.2373 70.2388 30.3057 70.4046 30.47 70.543 30.6099 70.6951 30.762L71.0905 30.762 71.3278 31.0662 71.5407 31.0844 71.8342 31.5118 71.8342 31.7734 72.3011 32.257 72.5293 32.257C72.5521 32.3179 72.5734 32.3802 72.5901 32.4289L73.0297 32.6464 73.3947 33.3719C73.3551 33.4601 73.3278 33.524 73.2989 33.5817L73.5057 33.7643 73.8586 33.7643C74.0435 33.8707 74.2186 33.9933 74.3817 34.1308 74.5104 34.2794 74.6254 34.4392 74.7255 34.6084L75.0114 34.6236 75.3156 35.384 75.8875 35.9559C75.8875 36.076 75.8996 36.1962 75.8996 36.219L76.4213 36.6966C76.4837 36.9779 76.4791 36.9871 76.7087 37.0966 77.1468 37.3034 77.4981 37.5954 77.6593 38.0624L77.9452 38.0624 78.5004 38.8228 78.911 38.8228 78.911 39.2106 79.1361 39.235 79.5513 39.7536 79.5513 40.1658 80.2555 40.7179C80.4258 40.6327 80.4258 40.6327 80.7118 40.6646L80.3483 40.9354 80.6281 40.9354 81.2776 41.4373 81.2776 41.6532C81.5042 41.7095 81.5939 41.8996 81.7445 42.0091L81.8753 41.8905 82.1688 42.035 82.3544 42.3194 82.7909 42.3711C82.8126 42.4586 82.8391 42.5449 82.87 42.6297 82.9019 42.7072 82.9475 42.7817 82.9916 42.8593L83.3658 42.8806C83.6198 43.1939 84.0395 43.3977 84.0547 43.9452 84.2817 44.0642 84.4998 44.1994 84.7072 44.3498 85.0509 44.6297 85.4053 44.8897 85.67 45.2745 85.8911 45.5557 86.0785 45.8621 86.2281 46.1871L86.73 46.1871C86.7717 46.3306 86.8225 46.4713 86.8821 46.6084 86.9597 46.7605 87.0783 46.8837 87.1544 47.0327 87.219 47.1872 87.2739 47.3457 87.3186 47.5072L87.7749 47.8342C87.7536 48.108 88.1308 48.0715 88.1475 48.3544L88.7559 48.2433 88.6707 48.3954 89.3338 49.1665 89.5544 48.6008 89.8494 48.3179 89.8494 47.9437 90.1673 47.7916 90.4441 47.9513C90.4608 47.7764 90.4745 47.6471 90.4821 47.5513L90.8791 47.0509 91.0312 47.0418 91.8494 46.3376C91.8389 46.0833 91.9393 45.8368 92.1247 45.6624 92.581 45.7095 92.5931 45.2821 92.7711 45.0129 92.9291 45.0459 93.089 44.9652 93.1559 44.8182 93.2531 44.6855 93.3647 44.5641 93.489 44.4563L93.489 44.2586 94.0882 44.2586 94.2768 43.7095C94.5156 43.5757 94.8076 43.4616 94.7817 43.1392L95.1939 42.8502 95.4418 42.8502 95.9407 42.3833 95.9407 42.1825C96.0487 42.1065 96.1962 42.0608 96.2327 41.9696 96.382 41.5636 96.6814 41.2304 97.0692 41.0388 97.0935 40.7513 97.4327 40.7346 97.4981 40.5156L97.7414 40.4989 97.7703 40.2312 98.2266 39.7749 98.6403 39.7293 98.6403 39.4418 98.8624 39.4418C99.1665 39.2624 99.1909 38.8091 99.5468 38.7559 99.6213 38.6038 99.6791 38.4837 99.746 38.3483L100.14 38.3483C100.068 38.1567 100.052 37.9255 99.9331 37.8433 99.7627 37.7262 99.7384 37.5589 99.6502 37.4114L99.4616 37.3901 98.943 36.7894 98.9354 36.6144 98.3574 36.3103C98.2053 36.0502 98.0715 35.8205 97.9316 35.5833 97.8128 35.5332 97.6896 35.4944 97.5635 35.4677 97.3896 35.4604 97.2155 35.463 97.0418 35.4753ZM45.9468 82.003C46.076 81.7338 46.0776 81.746 46.2509 81.6776 46.423 81.5983 46.59 81.509 46.7513 81.4099L46.7513 81.0327 47.3004 80.8213 47.527 80.9506 47.9665 80.511 48.3316 80.4912 48.5141 80.1795 48.7665 80.1795 48.9338 79.9589 49.4829 79.9589 49.9103 79.089 50.2707 79.089C50.2783 78.9491 50.2844 78.8289 50.292 78.657L50.7407 78.7802 51.3293 78.3574 51.7719 78.3574 51.9361 78.1369 52.4532 78.1369C52.6053 77.8494 52.6859 77.5285 52.8867 77.3354 53.0874 77.1422 53.2989 76.8943 53.597 76.8091 53.5255 76.5932 53.1285 76.6783 53.1863 76.3133L53.7201 76.3848 53.8829 76.5475 54.1217 76.1779C54.0441 75.8418 53.5696 75.9924 53.4844 75.6654L53.5894 75.5042C53.4616 75.3749 53.3506 75.2593 53.2319 75.1498 53.2122 75.1316 53.165 75.1498 53.127 75.1422L53.0129 75.2487 52.5414 74.6403C52.5065 74.908 52.762 75.0662 52.5612 75.2669 52.4836 75.2137 52.4 75.1589 52.3468 75.124L52.4593 74.7255 52.1338 74.4213C52.1916 74.3437 52.2494 74.257 52.3179 74.1795 52.3863 74.1019 52.4502 74.0517 52.5947 73.9163L51.6928 74.035 51.4433 73.7445 51.1072 73.7278 51.2426 73.5757C51.0145 73.3354 50.7726 73.1194 50.3939 73.2304L50.2084 73.524 49.5407 73.3171 49.5133 72.7361C49.1346 72.9171 48.9901 72.4593 48.6555 72.5445 48.6996 72.362 48.6068 72.1886 48.7787 72.076L48.4943 71.7916 48.1186 71.7916C48.076 71.6578 48.0365 71.5331 47.9924 71.3901 47.6882 71.4312 47.5787 71.238 47.5757 70.9582L47.3688 70.9582 46.6281 70.3711 46.7559 70.2266 46.4411 70.1779 46.5034 70.108 46.2281 69.9559 46.1764 69.565 45.5833 69.6806C45.529 69.5854 45.4885 69.483 45.4631 69.3764 45.475 69.2814 45.5039 69.189 45.5483 69.1042L45.0768 69.1042 45.5163 68.3529 45.1878 68.4502 44.762 68.1992 44.9141 67.9893 44.762 67.8509 44.5719 67.962C44.4198 67.8418 44.3179 67.7262 44.3894 67.5787L44.7148 67.3688C44.5538 67.1824 44.3427 67.0462 44.1065 66.9764 44.0105 66.9466 43.9229 66.8944 43.851 66.8243 43.6438 66.6036 43.3889 66.4336 43.1057 66.327L42.3848 65.6061 42.5034 65.3825 42.6175 65.4753 42.7696 65.3232 42.5855 65.1544 42.4335 65.1544 42.1293 64.8106 41.8677 65.0418 41.5209 64.7909C41.5011 64.9764 41.489 65.1103 41.4753 65.235L41.2608 65.451 41.2608 65.7749 40.8411 65.9681C40.9024 66.1063 40.84 66.268 40.7018 66.3293 40.6975 66.3311 40.6932 66.3329 40.689 66.3346 40.5004 66.3887 40.3433 66.5195 40.2555 66.6951 40.0471 67.0099 39.746 67.2 39.4099 67.4008L39.7141 67.7399C39.5814 67.8567 39.4395 67.9626 39.2897 68.0563 39.1741 68.11 39.0534 68.1518 38.9293 68.181L38.2814 68.7817 38.2814 69.3217 37.9194 69.5513C37.8388 69.7653 37.7448 69.9741 37.638 70.1764 37.5255 70.3471 37.3956 70.5057 37.2502 70.6494 37.0981 70.8015 37.0205 71.0175 36.7848 71.0814L36.7848 71.5452C36.4152 71.8418 36.0684 72.1232 35.746 72.3833L35.8449 72.724C35.6456 72.8395 35.5498 73.0281 35.3414 73.1255 35.1894 73.197 35.127 73.4494 35.0236 73.6259L34.8 73.6517C34.508 73.851 34.6114 74.2601 34.3255 74.4426 34.3011 74.4593 34.3422 74.5643 34.3163 74.5947 34.1825 74.7392 34.2875 75.0509 34.0928 75.0768 33.854 75.1133 33.7886 75.3521 33.5802 75.3932L33.5802 75.6152 33.9042 75.8221C33.7125 75.9741 33.8053 76.143 33.7779 76.3407L34.657 76.5719 35.5224 77.5726 35.4297 77.9072C35.607 78.0935 35.8642 78.1816 36.1186 78.143 36.146 78.2418 36.1627 78.3027 36.1779 78.3605L36.5019 78.3605C36.654 78.4669 36.692 78.6464 36.8639 78.7528 37.0724 78.8652 37.1504 79.1253 37.038 79.3338 37.0313 79.3463 37.0239 79.3586 37.016 79.3703L37.457 79.7308 37.8205 79.781C37.7688 79.8662 37.7338 79.9224 37.6852 80.0046L38.5673 80.7392 38.5901 81.124 38.8776 81.1559 39.384 81.6821 39.6228 81.6821C39.7551 81.8859 39.8905 82.0973 40.0335 82.3194L40.1521 82.3194C40.2783 82.4578 40.365 82.5551 40.4487 82.6494 40.4332 82.6628 40.4184 82.677 40.4046 82.692 40.724 82.8243 40.8973 83.127 41.1513 83.3354L41.0677 83.4297 41.5559 83.8266 41.8266 83.8266 42.1156 84.0852 42.0411 84.1734 42.2829 84.4928 42.6844 83.9452 43.2015 84.1962C43.0996 83.9726 43.0281 83.8175 42.9612 83.673L43.1133 83.5209C43.238 83.5878 43.3536 83.6563 43.4753 83.708 43.5118 83.7247 43.5696 83.6897 43.6167 83.6791L43.6167 83.454C43.7065 83.4132 43.7912 83.3621 43.8692 83.3019 43.9256 83.2268 43.9726 83.1451 44.0091 83.0585L44.3209 83.2106 44.7346 82.5278 44.8624 82.6555 45.2061 82.2144C45.4144 82.2996 45.4844 82.0624 45.6228 82.0015Z" transform="matrix(1 0 0 1.00131 59 162)"/></g></svg>